<?xml version="1.0" encoding="UTF-8"?>
<!DOCTYPE svg PUBLIC "-//W3C//DTD SVG 1.1//EN" "http://www.w3.org/Graphics/SVG/1.1/DTD/svg11.dtd">
<!-- Creator: CorelDRAW -->
<svg xmlns="http://www.w3.org/2000/svg" xml:space="preserve" width="1564px" height="957px" version="1.1" style="shape-rendering:geometricPrecision; text-rendering:geometricPrecision; image-rendering:optimizeQuality; fill-rule:evenodd; clip-rule:evenodd"
viewBox="0 0 1564 957.09"
 xmlns:xlink="http://www.w3.org/1999/xlink"
 xmlns:xodm="http://www.corel.com/coreldraw/odm/2003">
 <defs>
  <style type="text/css">
   <![CDATA[
    .str1 {stroke:#394450;stroke-width:40;stroke-miterlimit:22.9256;transition:stroke 0.28s ease}
    .str0 {stroke:#394450;stroke-width:45;stroke-miterlimit:22.9256;transition:stroke 0.28s ease}
    .fil0 {fill:none}
    .fil1 {fill:#005FBF;fill-rule:nonzero}
    @media (prefers-color-scheme: dark) {
      .str0, .str1 {stroke:#ffffff}
    }
   ]]>
  </style>
 </defs>
 <g id="Layer_x0020_1">
  <metadata id="CorelCorpID_0Corel-Layer"/>
  <path class="fil0 str0" d="M269.74 22.5l1024.51 0c40.24,0 73.16,32.92 73.16,73.16l0 638.85c0,40.24 -32.92,73.16 -73.16,73.16l-1024.51 0c-40.23,0 -73.15,-32.92 -73.15,-73.16l0 -638.85c0,-40.24 32.92,-73.16 73.15,-73.16z"/>
  <path class="fil0 str1" d="M28.55 923.19l1506.9 0c4.7,0 8.54,3.13 8.54,6.95l0 0c0,3.82 -3.84,6.95 -8.54,6.95l-1506.9 0c-4.7,0 -8.55,-3.13 -8.55,-6.95l0 0c0,-3.82 3.85,-6.95 8.55,-6.95z"/>
  <path class="fil1" d="M690.07 591.84l108.11 0c8.26,0 15.43,2.92 21.5,8.75 6.08,5.83 9.11,12.88 9.11,21.14 0,8.26 -3.03,15.3 -9.11,21.13 -6.07,5.83 -13.24,8.75 -21.5,8.75l-111.88 0c-14.33,0 -29.03,-4.49 -44.22,-13.48 -15.18,-8.99 -25.75,-19.08 -31.71,-30.25l-68.75 -133.51c-9.23,-19.19 -13.85,-38.87 -13.85,-59.04 0,-22.35 4.37,-41.66 13.12,-58.06l69.48 -132.05c6.69,-12.39 17.01,-23.2 30.98,-32.56 14.09,-9.35 27.58,-14.09 40.7,-14.09l118.32 0c8.26,0 15.3,2.92 21.14,8.87 5.83,5.95 8.74,13 8.74,21.01 0,8.26 -2.91,15.43 -8.74,21.51 -5.84,6.07 -13,9.11 -21.26,9.11l-114.56 0c-9.47,-0.25 -17.25,5.22 -23.08,16.52l-65.72 124.15c-5.1,9.72 -7.77,21.26 -7.9,34.38 0.37,13.85 3.41,26.24 8.99,36.93l62.93 121.96c5.95,12.64 15.67,18.83 29.16,18.83z"/>
  <path id="_1" class="fil1" d="M782.45 309.65l127.43 -110.06c17.13,-13.97 34.62,-21.02 52.72,-21.02 19.93,0 37.18,7.29 51.75,21.74 14.58,14.46 21.87,30.01 21.87,46.53l0 182.95c0,34.62 -14.82,64.5 -44.46,89.65l-39.97 33.65 15.07 38.75 39.84 0c8.14,0 15.19,2.92 20.89,8.75 5.72,5.83 8.63,12.88 8.63,21.14 0,8.26 -2.91,15.3 -8.63,21.13 -5.83,5.83 -12.87,8.75 -21.01,8.75l-81.39 0 -22.11 -57.1 -40.7 34.38c-17.85,15.19 -35.95,22.72 -54.3,22.72 -20.89,0 -38.38,-7.17 -52.48,-21.5 -14.09,-14.34 -21.13,-31.71 -21.13,-52.12l0 -166.91c0,-20.77 3.15,-38.75 9.59,-53.81 6.44,-15.07 19.2,-30.98 38.39,-47.62zm166.67 -66.21l-127.31 109.82c-11.06,9.72 -18.47,18.95 -22.11,27.82 -3.64,8.74 -5.47,21.13 -5.47,37.29l0 155.74c0,12.27 4.74,18.46 14.22,18.46 3.76,0.12 7.53,-1.33 11.05,-4.49l60.74 -52.12 -19.68 -51.75c-2.91,-6.8 -4.37,-12.75 -4.37,-17.73 0,-7.29 2.91,-13.85 8.87,-19.68 5.83,-5.83 12.87,-8.75 20.89,-8.75 13.85,-0.61 23.2,4.86 27.7,16.4l15.67 40.57c16.76,-14.09 28.79,-25.51 35.84,-34.38 7.04,-8.86 10.56,-19.31 10.56,-31.34l0 -175.29c0,-9.96 -4.61,-14.94 -13.72,-14.94 -4.98,-0.25 -9.36,1.21 -12.88,4.37z"/>
 </g>
</svg>
