<?xml version="1.0" encoding="UTF-8"?>
<!DOCTYPE svg PUBLIC "-//W3C//DTD SVG 1.1//EN" "http://www.w3.org/Graphics/SVG/1.1/DTD/svg11.dtd">
<!-- Creator: CorelDRAW 2019 (64-Bit) -->
<svg xmlns="http://www.w3.org/2000/svg" xml:space="preserve" width="9.13398in" height="2.09681in" version="1.1" style="shape-rendering:geometricPrecision; text-rendering:geometricPrecision; image-rendering:optimizeQuality; fill-rule:evenodd; clip-rule:evenodd"
viewBox="0 0 8924.66 2048.76"
 xmlns:xlink="http://www.w3.org/1999/xlink"
 xmlns:xodm="http://www.corel.com/coreldraw/odm/2003">
 <defs>
  <style type="text/css">
   <![CDATA[
    .fil3 {fill:#005FBF}
    .fil2 {fill:#3A4450}
    .fil4 {fill:#FEFEFE;fill-rule:nonzero}
    .fil0 {fill:#394450;fill-rule:nonzero}
    .fil1 {fill:#005FBF;fill-rule:nonzero}
   ]]>
  </style>
 </defs>
 <g id="Layer_x0020_1">
  <metadata id="CorelCorpID_0Corel-Layer"/>
  <g id="_2424944587152">
   <g>
    <path class="fil0" d="M3360.54 1003.11l216.38 0c16.53,0 30.87,5.84 43.03,17.5 12.16,11.67 18.23,25.77 18.23,42.3 0,16.53 -6.08,30.64 -18.23,42.3 -12.16,11.67 -26.5,17.51 -43.03,17.51l-223.92 0c-28.69,0 -58.11,-8.99 -88.5,-26.99 -30.39,-17.99 -51.54,-38.17 -63.45,-60.54l-137.61 -267.19c-18.48,-38.41 -27.72,-77.8 -27.72,-118.16 0,-44.73 8.75,-83.39 26.25,-116.22l139.07 -264.27c13.37,-24.8 34.04,-46.43 61.99,-65.16 28.2,-18.72 55.19,-28.2 81.45,-28.2l236.8 0c16.53,0 30.64,5.84 42.3,17.75 11.67,11.91 17.51,26.02 17.51,42.06 0,16.53 -5.84,30.88 -17.51,43.03 -11.67,12.16 -26.01,18.23 -42.55,18.23l-229.26 0c-18.96,-0.48 -34.52,10.46 -46.2,33.07l-131.53 248.47c-10.21,19.45 -15.56,42.55 -15.8,68.8 0.73,27.72 6.81,52.51 17.99,73.91l125.94 244.1c11.67,25.28 31.12,37.68 58.35,37.68zm647.93 -564.78l255.03 -220.27c34.28,-27.96 69.29,-42.06 105.52,-42.06 39.87,0 74.39,14.59 103.57,43.52 29.17,28.93 43.76,60.05 43.76,93.12l0 366.14c0,69.29 -29.66,129.1 -88.98,179.43l-79.74 67.34 29.9 77.56 79.74 0c16.29,0 30.39,5.84 41.82,17.5 11.42,11.67 17.26,25.77 17.26,42.3 0,16.53 -5.84,30.64 -17.26,42.3 -11.67,11.67 -25.77,17.51 -42.06,17.51l-162.89 0 -44.25 -114.27 -81.45 68.8c-35.74,30.39 -71.96,45.47 -108.68,45.47 -41.81,0 -76.83,-14.34 -105.03,-43.03 -28.2,-28.69 -42.3,-63.45 -42.3,-104.3l0 -334.05c0,-41.58 6.32,-77.56 19.21,-107.71 12.89,-30.15 38.41,-61.99 76.83,-95.3zm333.56 -132.74l-254.79 220.03c-22.12,19.45 -36.96,37.93 -44.25,55.67 -7.29,17.5 -10.94,42.3 -10.94,74.64l0 311.68c0,24.56 9.48,36.96 28.45,36.96 7.54,0.24 15.07,-2.67 22.12,-8.99l121.56 -104.3 -39.39 -103.57c-5.84,-13.61 -8.75,-25.53 -8.75,-35.49 0,-14.59 5.84,-27.72 17.75,-39.39 11.67,-11.67 25.77,-17.51 41.81,-17.51 27.72,-1.22 46.44,9.73 55.43,32.82l31.36 81.2c33.55,-28.2 57.62,-51.05 71.72,-68.8 14.1,-17.75 21.15,-38.66 21.15,-62.73l0 -350.83c0,-19.94 -9.24,-29.9 -27.47,-29.9 -9.97,-0.48 -18.72,2.43 -25.77,8.51zm813.25 240.94l0 398.23 35.01 58.35 49.84 0 36.23 -59.81 0 -706.03c0,-16.53 6.08,-30.88 18.23,-43.03 12.16,-12.16 26.5,-18.23 43.03,-18.23 16.05,0 30.15,5.84 42.06,17.75 11.91,11.91 17.75,26.02 17.75,42.06l0 726.7c0,9 -4.86,21.64 -14.83,37.68l-55.68 91.9c-11.42,20.42 -28.69,30.63 -52.03,30.63l-112.56 0c-35.5,0 -58.35,-16.04 -68.32,-48.38 -10.94,32.34 -32.82,48.38 -65.4,48.38l-105.52 0c-30.39,0 -52.27,-11.18 -65.4,-33.55l-51.3 -86.06c-9.48,-15.8 -14.34,-29.17 -14.34,-40.6l0 -725.23c0,-16.53 6.08,-30.88 18.23,-43.03 11.91,-12.16 26.5,-18.23 43.03,-18.23 15.56,0 29.17,6.08 40.84,18.23 11.67,12.16 17.51,26.5 17.51,43.03l0 708.95 35.01 56.89 51.3 0 37.68 -59.81 0 -396.78c0,-16.53 5.84,-30.63 17.5,-42.3 11.67,-11.67 25.77,-17.51 42.3,-17.51 16.53,0 30.64,5.84 42.31,17.51 11.67,11.67 17.5,25.77 17.5,42.3zm1063.42 -249.44l-423.03 0 0 291.75 182.35 0c16.04,0 30.15,5.84 42.06,17.75 11.91,11.91 17.75,26.01 17.75,42.06 0,17.02 -5.84,31.61 -17.5,43.52 -11.67,11.91 -25.77,17.75 -42.3,17.75l-182.35 0 0 293.21 424.5 0c16.04,0 30.15,5.84 42.06,17.5 11.91,11.67 17.75,25.77 17.75,42.3 0,16.53 -6.08,30.64 -18.23,42.3 -12.16,11.67 -26.5,17.51 -43.03,17.51l-542.65 0 0 -946.72 542.65 0c16.53,0 30.88,6.08 43.03,18.23 12.16,12.16 18.23,26.5 18.23,43.03 0,16.04 -6.08,30.15 -18.23,42.06 -12.16,11.91 -26.5,17.75 -43.03,17.75zm339.89 765.84l0 -886.91 423.03 0c48.87,0 90.93,17.75 126.42,53.49 35.25,35.5 53,78.04 53,127.4l0 68.56c0,49.84 -17.5,92.38 -52.76,127.88 -35.01,35.25 -77.31,53 -126.67,53l-76.1 0 244.1 420.12c7.54,12.4 11.42,24.8 11.42,37.2 0,16.04 -6.08,29.9 -18.48,41.57 -12.4,11.67 -26.5,17.51 -42.3,17.51 -23.83,0 -41.82,-10.46 -54.22,-31.85l-280.81 -484.54 -85.58 0 0 456.58c0,16.53 -6.08,30.64 -18.23,42.3 -12.16,11.67 -26.5,17.51 -43.03,17.51 -16.53,0 -30.63,-5.84 -42.3,-17.51 -11.67,-11.67 -17.51,-25.77 -17.51,-42.3zm121.08 -576.2l302.2 0c16.53,0 30.63,-5.83 42.3,-17.5 11.42,-11.67 17.26,-25.77 17.26,-42.3l0 -70.02c0,-16.53 -5.84,-30.64 -17.26,-42.3 -11.67,-11.67 -25.77,-17.51 -42.3,-17.51l-302.2 0 0 189.63zm755.63 -148.79l0 -161.92 605.38 0 0 162.16c0,16.53 -5.84,30.64 -17.75,42.3 -11.91,11.43 -26.01,17.26 -42.06,17.26 -16.53,0 -30.87,-5.84 -43.03,-17.51 -12.16,-11.91 -18.23,-25.77 -18.23,-41.57l0 -43.03 -121.08 0 0 767.05c0,16.78 -5.84,30.88 -17.75,42.55 -11.91,11.67 -26.01,17.51 -42.06,17.51 -17.02,0 -31.61,-5.84 -43.52,-17.51 -11.91,-11.67 -17.75,-25.77 -17.75,-42.55l0 -767.05 -122.54 0 0 42.06c0,16.78 -5.84,30.87 -17.51,42.55 -11.67,11.67 -25.77,17.51 -42.3,17.51 -16.53,0 -30.63,-5.84 -42.3,-17.51 -11.67,-11.67 -17.5,-25.77 -17.5,-42.3zm1247.22 330.4l0 394.59c0,16.53 -5.83,30.64 -17.75,42.3 -11.91,11.67 -26.02,17.51 -42.06,17.51 -17.02,0 -31.61,-5.84 -43.52,-17.51 -11.91,-11.67 -17.75,-25.77 -17.75,-42.3l0 -394.1 -242.15 -304.63 0 -126.91c0,-17.02 5.84,-31.61 17.51,-43.52 11.67,-11.91 25.77,-17.75 42.3,-17.75 16.53,0 30.87,6.08 43.03,18.48 12.16,12.16 18.23,26.74 18.23,43.52l0 83.15 180.88 229.75 183.8 -231.94 0 -82.42c0,-16.29 5.84,-30.63 17.75,-42.55 11.91,-11.91 26.01,-17.99 42.06,-17.99 15.56,0 29.66,5.59 41.57,16.78 12.16,11.18 18.23,26.01 18.23,44.49l0 125.45 -242.15 305.6z"/>
    <path class="fil1" d="M3437.4 1878.64l-71.35 0 0 -427.46 71.35 0 0 427.46zm574.28 0l-71.34 0 -189.28 -307.92 -1.8 0.6 0 307.32 -71.34 0 0 -427.46 71.34 0 189.38 308.02 1.7 -0.6 0 -307.42 71.34 0 0 427.46zm478.39 -182.26l-172.34 0 0 182.26 -71.34 0 0 -427.46 273.65 0 0 57.32 -202.31 0 0 130.56 172.34 0 0 57.32zm569.87 7.01c0,52.2 -16.43,95.59 -49.2,129.86 -32.77,34.37 -75.35,51.5 -127.86,51.6 -51.1,-0.1 -92.69,-17.23 -124.75,-51.6 -32.07,-34.27 -48.1,-77.66 -48.1,-129.86l0 -76.95c0,-52 15.93,-95.29 48,-129.76 31.96,-34.37 73.65,-51.6 124.85,-51.6 52.3,0 94.79,17.24 127.76,51.6 32.87,34.47 49.3,77.76 49.3,129.76l0 76.95zm-71.34 -77.46c0,-35.67 -9.52,-64.93 -28.45,-87.78 -19.04,-22.95 -44.79,-34.37 -77.25,-34.37 -31.46,0 -56.31,11.42 -74.35,34.37 -18.14,22.85 -27.15,52.1 -27.15,87.78l0 77.46c0,35.97 9.02,65.53 27.25,88.48 18.24,23.05 42.99,34.47 74.25,34.47 32.66,0 58.52,-11.42 77.36,-34.27 18.94,-22.95 28.35,-52.51 28.35,-88.68l0 -77.46zm363.16 75.35l0 177.36 -71.34 0 0 -427.46 147.09 0c47.6,0 84.37,10.82 110.42,32.37 25.95,21.44 38.98,52.2 38.98,92.18 0,22.04 -5.71,41.08 -17.14,57.01 -11.42,16.03 -28.15,28.76 -50.1,38.38 24.15,7.61 41.48,20.04 52.1,37.27 10.72,17.24 16.03,38.58 16.03,63.93l0 35.57c0,12.53 1.6,24.75 4.71,36.68 3.11,11.92 8.32,21.04 15.53,27.35l0 6.71 -73.35 0c-7.82,-6.41 -12.83,-16.53 -15.03,-30.26 -2.1,-13.63 -3.2,-27.36 -3.2,-41.08l0 -34.37c0,-21.84 -6.31,-39.28 -18.94,-52.2 -12.63,-12.93 -29.76,-19.44 -51.5,-19.44l-84.27 0zm0 -57.21l71.94 0c28.56,0 49.4,-5.51 62.53,-16.43 13.13,-10.92 19.64,-27.65 19.64,-50.2 0,-21.55 -6.42,-38.38 -19.34,-50.6 -12.93,-12.22 -32.56,-18.33 -59.02,-18.33l-75.75 0 0 135.57zm672.28 135.97l1.8 0 123.55 -328.86 91.08 0 0 427.46 -71.34 0 0 -307.12 -1.8 -0.2 -117.74 307.32 -49 0 -119.74 -313.23 -1.8 0.6 0 312.63 -71.34 0 0 -427.46 93.68 0 122.65 328.86zm679.2 -1.2l-151.5 0 -32.87 99.8 -73.65 0 149.1 -427.46 67.83 0 147.3 427.46 -73.65 0 -32.57 -99.8zm-131.76 -59.62l112.43 0 -54.91 -168.44 -1.8 0 -55.71 168.44zm78.26 -387.78l80.76 0 0.5 1.7 -80.06 76.35 -57.31 0 56.11 -78.06zm629.9 177.06l-132.17 0 0 370.14 -71.34 0 0 -370.14 -129.96 0 0 -57.32 333.47 0 0 57.32zm276.29 370.14l-71.35 0 0 -427.46 71.35 0 0 427.46zm552.84 -139.78l0.6 1.8c0.8,43.09 -13.23,77.86 -41.98,104.41 -28.75,26.45 -67.53,39.68 -116.53,39.78 -49.7,-0.1 -89.98,-16.83 -120.94,-50.4 -30.86,-33.57 -46.4,-76.45 -46.4,-128.76l0 -81.26c0,-52.1 15.33,-94.99 45.79,-128.76 30.56,-33.77 70.44,-50.6 119.54,-50.6 50.3,0 89.88,12.83 118.73,38.48 28.86,25.55 42.89,60.72 42.09,105.31l-0.6 1.8 -68.94 0c0,-28.56 -7.71,-50.4 -23.25,-65.63 -15.43,-15.13 -38.08,-22.75 -68.03,-22.75 -28.96,0 -51.9,11.52 -68.84,34.47 -16.94,23.05 -25.45,52 -25.45,87.08l0 81.86c0,35.47 8.62,64.63 25.85,87.68 17.23,22.95 40.68,34.47 70.44,34.47 29.16,0 51.3,-7.62 66.53,-22.85 15.13,-15.33 22.75,-37.28 22.75,-66.13l68.64 0zm436.71 39.98l-151.5 0 -32.87 99.8 -73.65 0 149.1 -427.46 67.83 0 147.3 427.46 -73.65 0 -32.57 -99.8zm-131.76 -59.62l112.43 0 -54.91 -168.44 -1.8 0 -55.71 168.44z"/>
   </g>
   <path class="fil2" d="M2558.97 1771.06c16.88,4.44 30.79,20.8 54.52,49.63l-68.89 0.19c-274.15,-0.07 -548.42,0.75 -822.55,-0.4 -30.85,0.37 -75.55,-4.94 -79.96,6.97 -4.41,11.91 8.56,49.61 10.18,78.38l-397.44 -0.79c2.03,-26.76 19.58,-62.33 11.44,-75.84 -8.13,-13.51 -53.56,-8.26 -86.21,-8.39 -270.73,0.1 -541.64,0.87 -812.36,-0.26l-63.38 -0.16c46.68,-43.33 43.71,-56.96 81.46,-56.71l436.4 0.48c193.09,2.67 388.38,0.1 581.72,0.2 284.34,0.14 590.92,-3.99 872.57,-0.16 22.87,0.3 264.74,-8.73 282.5,6.85zm-2014.62 -111.98c545.43,0.18 1090.85,0.23 1636.27,0 27.61,-0.12 245.22,-4 262.09,2.9 9.88,4.05 38.42,30.87 43.56,42.61l-2064.32 -0.3 23.57 -26.07c27.78,-29.36 28.8,-17.29 98.82,-19.16zm1856.74 -182.3c-22.35,47.97 -66.59,51.77 -110.98,51.24l-858.95 -0.12c-25.47,0.27 -852.12,6.15 -880.18,-5.4 -23.16,-9.56 -47.98,-37.19 -51.27,-62.36 -1.83,-416.24 -2.95,-833.42 -0.69,-1249.66 2.85,-35.43 16.88,-59.59 47.73,-69.47 17.7,-13.85 125.96,-8.8 157.23,-8.86 521.02,0.59 1042.37,0.65 1563.4,-0.07 46.68,0.53 106.34,-6.53 131.75,41.61 5.35,10.15 7.58,17.23 9.77,30.13l0.33 94.26c0.04,363.77 0.17,727.55 -0.04,1091.33 0.05,27.43 -0.31,70.58 -8.12,87.35zm-944.93 -1447.64c26.44,-0.17 37.48,18.24 37.61,35.78 0.12,17.54 -11.76,35.97 -37.61,35.79 -25.85,-0.18 -38.07,-21.82 -37.61,-35.79 0.46,-13.97 11.17,-35.61 37.61,-35.78zm-1087.61 1462.93l5.41 36.38c-20.42,3.2 -27.83,8.27 -47.34,27.05 -41.33,44.51 -330.09,343.64 -326.45,374.1 -1.57,56.58 7.81,68.95 24.15,86.03 16.34,17.08 27.55,25.45 68.23,30.3 876.16,4.87 1753.03,2.26 2629.3,0.6 106.47,1.47 136.06,7.8 178.21,-62.34 18.56,-34.05 6.08,-78.98 -18.39,-106.66 -81.41,-92.13 -179.46,-196.71 -265.88,-283.82 -70.08,-76 -75.98,-59.57 -85.31,-65.26 17.46,-111.53 8.95,-243.91 8.99,-363.57l0.2 -736.23c-0.21,-51.31 0.4,-226.68 -6.75,-269.39 -17.41,-103.95 -78.92,-154.05 -169.91,-155.83 -543.82,-5.27 -1088.98,-3.25 -1632.86,-1.9 -69.28,0 -132.81,2.22 -201.96,6.52 -110.66,6.89 -161.09,112.15 -160.54,229.72 1.9,409.9 -8.14,853.68 0.9,1254.3z"/>
   <rect class="fil3" x="589.98" y="233.22" width="1729.98" height="1206.55"/>
   <path class="fil4" d="M1347.65 1067.84l141.51 0c10.81,0 20.19,3.82 28.14,11.45 7.95,7.63 11.93,16.86 11.93,27.67 0,10.81 -3.97,20.03 -11.93,27.67 -7.95,7.63 -17.33,11.45 -28.14,11.45l-146.44 0c-18.76,0 -38,-5.88 -57.87,-17.65 -19.87,-11.77 -33.71,-24.96 -41.5,-39.59l-90 -174.74c-12.08,-25.12 -18.13,-50.88 -18.13,-77.27 0,-29.25 5.72,-54.54 17.17,-76l90.95 -172.83c8.74,-16.22 22.26,-30.37 40.54,-42.61 18.45,-12.24 36.09,-18.45 53.27,-18.45l154.86 0c10.81,0 20.03,3.82 27.66,11.61 7.63,7.79 11.45,17.01 11.45,27.5 0,10.81 -3.82,20.19 -11.45,28.14 -7.63,7.95 -17.01,11.93 -27.82,11.93l-149.93 0c-12.4,-0.32 -22.58,6.84 -30.21,21.62l-86.02 162.5c-6.68,12.72 -10.18,27.82 -10.34,45 0.48,18.13 4.45,34.34 11.77,48.33l82.36 159.63c7.63,16.53 20.35,24.64 38.16,24.64zm120.92 -369.35l166.79 -144.05c22.42,-18.28 45.31,-27.51 69,-27.51 26.07,0 48.65,9.54 67.73,28.46 19.08,18.92 28.62,39.27 28.62,60.89l0 239.45c0,45.32 -19.4,84.43 -58.19,117.34l-52.15 44.04 19.56 50.72 52.15 0c10.65,0 19.87,3.82 27.35,11.45 7.47,7.63 11.29,16.86 11.29,27.67 0,10.81 -3.82,20.03 -11.29,27.67 -7.63,7.63 -16.85,11.45 -27.51,11.45l-106.53 0 -28.94 -74.73 -53.26 45c-23.37,19.87 -47.07,29.73 -71.07,29.73 -27.35,0 -50.24,-9.38 -68.69,-28.14 -18.44,-18.76 -27.66,-41.5 -27.66,-68.21l0 -218.46c0,-27.19 4.13,-50.72 12.56,-70.44 8.42,-19.71 25.12,-40.54 50.24,-62.33zm218.14 -86.81l-166.63 143.89c-14.47,12.72 -24.17,24.8 -28.94,36.41 -4.77,11.44 -7.16,27.66 -7.16,48.81l0 203.83c0,16.06 6.2,24.17 18.6,24.17 4.93,0.16 9.86,-1.75 14.47,-5.88l79.5 -68.21 -25.76 -67.73c-3.82,-8.91 -5.72,-16.7 -5.72,-23.22 0,-9.54 3.82,-18.13 11.61,-25.76 7.63,-7.63 16.85,-11.45 27.35,-11.45 18.13,-0.79 30.37,6.36 36.25,21.47l20.51 53.1c21.94,-18.44 37.68,-33.39 46.9,-45 9.22,-11.61 13.83,-25.28 13.83,-41.02l0 -229.43c0,-13.04 -6.04,-19.56 -17.97,-19.56 -6.52,-0.32 -12.24,1.59 -16.85,5.56z"/>
  </g>
 </g>
</svg>
